<?xml version="1.0" encoding="utf-8"?>
<!-- Generator: Adobe Illustrator 21.1.0, SVG Export Plug-In . SVG Version: 6.00 Build 0)  -->
<svg version="1.1" xmlns="http://www.w3.org/2000/svg" xmlns:xlink="http://www.w3.org/1999/xlink" x="0px" y="0px"
	 viewBox="0 0 108 108" style="enable-background:new 0 0 108 108;" xml:space="preserve">
<style type="text/css">
	.st0{fill:#020202;}
	.st1{fill:#010101;}
</style>
<g id="bell" >
	<g>
		<path class="st0" d="M29.8,97c-3.8,0-7.5-0.2-11.3,0c-7,0.4-12.9-5-10.8-13.7c0.7-2.9,1.9-5.6,4.2-7.6c5-4.4,7.4-10.1,9.2-16.3
			c1.9-6.8,2.7-13.8,2.8-20.8C24,24.8,30.3,15.1,43.1,9.6c0.5-0.2,0.8-0.5,1-1.1c1.5-4.8,5-7.4,9.7-7.5c4.2-0.1,8.7,3.1,9.6,7.6
			c0.1,0.7,0.7,0.8,1.2,1.1c9.6,4,15.7,11,18.2,21.2c0.9,3.5,0.6,7,0.8,10.5c0.5,9.2,1.8,18.2,5.9,26.6c1.4,2.8,3.2,5.3,5.6,7.4
			c3.6,3.3,5.2,7.5,5,12.4C99.7,93,95.3,97,89.9,97c-8.2,0-16.5,0-24.7,0c-1.1,0-1.6,0.1-1.7,1.4c-0.5,4.6-4.7,8.3-9.1,8.5
			c-5.3,0.1-9.6-3-10.4-7.8c-0.3-1.8-1-2.1-2.6-2.1C37.5,97.1,33.7,97,29.8,97z M53.6,87c11.3,0,22.5,0,33.8,0
			c0.9,0,2.2,0.4,2.5-0.2c0.4-0.9-0.3-2.1-0.8-3c-0.3-0.5-0.6-0.9-1-1.3c-4-3.5-6.7-7.9-8.7-12.7c-4.4-10.4-5.7-21.3-5.9-32.5
			c-0.1-7.5-3.5-13.2-10-17c-6.7-3.8-13.6-3.7-20.1,0.3c-6.6,4.1-9.6,10.3-9.5,18c0,8.2-1,16.3-3.3,24.2
			c-2.2,7.5-5.4,14.6-11.4,19.9c-0.8,0.7-1.3,1.7-1.6,2.8c-0.3,1.1-0.1,1.5,1.2,1.5C30.3,87,42,87,53.6,87z"/>
	</g>
</g>
</svg>
