<?xml version="1.0" encoding="utf-8"?>
<!-- Generator: Adobe Illustrator 21.1.0, SVG Export Plug-In . SVG Version: 6.00 Build 0)  -->
<svg version="1.1" xmlns="http://www.w3.org/2000/svg" xmlns:xlink="http://www.w3.org/1999/xlink" x="0px" y="0px"
	 viewBox="0 0 108 108" style="enable-background:new 0 0 108 108;" xml:space="preserve">
<style type="text/css">
	.st0{fill:#020202;}
	.st1{fill:#010101;}
</style>
<g id="camera" >
	<g>
		<path fill="white" d="M54.3,104c-13.3,0-26.6,0-39.9,0C6.9,104,1.1,98.2,1,90.7C1,82.8,1,75,1,67.1c0-11.9,0-23.8,0-35.7
			c0-8.2,5.7-13.8,13.8-13.8c3.9,0,7.7,0,11.6,0c0.9,0,1.2-0.2,1.2-1.1c-0.1-1.9,0-3.7,0-5.6c0-4.5,2.1-6.8,6.5-7.5
			C35.4,3.1,36.6,3,37.9,3C48.9,3,60,3,71,3c1.6,0,3.2,0.3,4.7,0.7c3.3,1,5,3.1,5.1,6.6c0.1,2,0.1,4,0,6c0,1,0.3,1.2,1.2,1.2
			c4,0,7.9,0,11.9,0c7.7,0,13.5,5.8,13.5,13.5c0,19.8,0,39.7,0,59.5c0,7.6-5.8,13.5-13.4,13.5C80.8,104,67.5,104,54.3,104z
			 M24.4,56.6C24.5,73.6,38.1,86.3,54,86.5c16.5,0.2,30-13.2,30.1-29.7c0.1-16.4-13.2-29.9-29.8-29.9C37.8,26.8,24.6,40,24.4,56.6z
			 M100.8,30.7c0-3.6-3.1-6.6-6.7-6.6c-3.6,0.1-6.6,3.1-6.5,6.7c0.1,3.6,3,6.6,6.7,6.5C97.9,37.4,100.8,34.4,100.8,30.7z"/>
		<path fill="white" d="M17.5,15.6c-1.9,0-3.7,0-5.6,0c-0.7,0-0.9-0.1-0.9-0.9c-0.1-3.2,1.6-5,4.9-5c1.3,0,2.5,0,3.8,0c2.9,0,4.9,2.5,4.4,5.4
			c-0.1,0.6-0.5,0.5-0.8,0.5C21.3,15.6,19.4,15.6,17.5,15.6z"/>
		<path fill="white" d="M74.4,56.7c0,11.1-9,20.1-20.1,20.1c-11.2,0-20.2-9-20.2-20.2c0-11.2,9.1-20.2,20.2-20.2C65.4,36.5,74.4,45.5,74.4,56.7z"
			/>
	</g>
</g>
</svg>
