<?xml version="1.0" encoding="utf-8"?>
<!-- Generator: Adobe Illustrator 21.1.0, SVG Export Plug-In . SVG Version: 6.00 Build 0)  -->
<svg version="1.1" xmlns="http://www.w3.org/2000/svg" xmlns:xlink="http://www.w3.org/1999/xlink" x="0px" y="0px"
	 viewBox="0 0 108 108" style="enable-background:new 0 0 108 108;" xml:space="preserve">
<style type="text/css">
	.st0{fill:#020202;}
	.st1{fill:#010101;}
</style>
<g id="close" class="sprite">
	<g>
		<path d="M97.5,107c-0.8,0-1.7,0-2.5,0c0-0.1-0.2-0.1-0.3-0.1c-2.5-0.4-4.5-1.6-6.2-3.4C77.1,92.1,65.8,80.8,54.4,69.4
			c-0.3-0.3-0.5-0.4-0.9,0C44,79,34.4,88.6,24.7,98.3c-1.9,1.9-3.7,3.7-5.6,5.6c-1.3,1.3-2.8,2.2-4.5,2.7c-0.7,0.2-1.3,0.3-2,0.5
			c-0.8,0-1.7,0-2.5,0c-0.2-0.2-0.5-0.2-0.7-0.2c-4.7-0.9-8.4-5.2-8.5-10c-0.1-3.2,1.1-5.8,3.3-8.1c11.4-11.4,22.8-22.8,34.3-34.3
			c0.4-0.4,0.4-0.5,0-0.9c-10-10-20-20-30-29.9c-1.6-1.6-3.2-3.1-4.7-4.7C-1.3,13.5,0.7,4.5,7.7,1.7C8.6,1.4,9.4,1.3,10.3,1
			c0.8,0,1.7,0,2.5,0c0,0,0.1,0.1,0.1,0.1c2.6,0.3,4.7,1.5,6.5,3.3c11.4,11.4,22.8,22.8,34.2,34.2c0.3,0.3,0.5,0.3,0.9,0
			c8.3-8.3,16.7-16.7,25-25c3.1-3.1,6.3-6.2,9.4-9.4C90,3,91.3,2.1,92.9,1.6c0.7-0.2,1.5-0.4,2.2-0.6c0.8,0,1.7,0,2.5,0
			c0,0.1,0.1,0.1,0.2,0.1c5.2,0.6,9.2,5.1,9.2,10.3c0,3.1-1.1,5.7-3.3,7.9C92.3,30.7,80.9,42.1,69.4,53.6c-0.4,0.4-0.4,0.5,0,0.9
			C80.7,65.7,92,77,103.3,88.3c0.3,0.3,0.6,0.6,0.8,0.8c5.3,5.6,2.9,14.9-4.4,17.3C99,106.7,98.2,106.8,97.5,107z"/>
	</g>
</g>
<g id="search" class="sprite">
	<g>
		<path fill="white" d="M0.8,46.5c0-0.6,0-1.3,0-1.9c0-0.4,0.1-0.7,0.1-1.1c0.1-1.4,0.2-2.8,0.4-4.3c0.5-3.4,1.4-6.7,2.6-9.8
			C10.1,14,24.9,2.9,42.3,2.1c0.1,0,0.3,0,0.4-0.1c1.1,0,2.2,0,3.4,0c0.1,0.1,0.3,0.1,0.4,0.1c1.3,0.1,2.6,0.2,3.8,0.4
			c3.3,0.4,6.5,1.3,9.6,2.5c15.4,5.9,26.9,20.4,27.9,38.2c0.2,3.4,0,6.8-0.6,10.1c-0.9,5.2-2.8,10.1-5.5,14.6
			c-0.3,0.5-0.3,0.5,0.1,0.8C89.9,76.8,98,84.9,106.1,93c0.4,0.4,0.7,0.7,0.9,1.2c0,0.5,0,0.9,0,1.4c-0.1,0.4-0.2,0.9-0.4,1.3
			c-0.6,1.4-1.5,2.5-2.5,3.6c-1.3,1.3-2.6,2.6-3.8,3.8c-0.6,0.6-1.3,1.1-2,1.6c-0.8,0.5-1.7,1-2.6,1.2c-0.1,0-0.3,0-0.4,0.1
			c-0.4,0-0.9,0-1.3,0c-0.6-0.2-1-0.6-1.4-1.1c-8-8-16-16-24-24c-0.1-0.1-0.1-0.1-0.2-0.2c-0.1-0.2-0.3-0.2-0.5,0
			c0,0-0.1,0.1-0.1,0.1c-6,3.8-12.6,6.1-19.7,6.7c-2.2,0.2-4.5,0.2-6.8,0c-2.3-0.2-4.6-0.5-6.9-1c-7.3-1.7-13.8-5.1-19.3-10.2
			c-6.6-6-11-13.4-13.1-22.1c-0.5-2.2-0.9-4.4-1-6.6C1,48.2,0.8,47.3,0.8,46.5z M15.3,45.5c0,16,13,29,29.1,29c16,0,29-13,29-29.1
			c0-16-13-29-29-29C28.3,16.5,15.3,29.5,15.3,45.5z"/>
	</g>
</g>
<g id="bell" class="sprite">
	<g>
		<path class="st0" d="M29.8,97c-3.8,0-7.5-0.2-11.3,0c-7,0.4-12.9-5-10.8-13.7c0.7-2.9,1.9-5.6,4.2-7.6c5-4.4,7.4-10.1,9.2-16.3
			c1.9-6.8,2.7-13.8,2.8-20.8C24,24.8,30.3,15.1,43.1,9.6c0.5-0.2,0.8-0.5,1-1.1c1.5-4.8,5-7.4,9.7-7.5c4.2-0.1,8.7,3.1,9.6,7.6
			c0.1,0.7,0.7,0.8,1.2,1.1c9.6,4,15.7,11,18.2,21.2c0.9,3.5,0.6,7,0.8,10.5c0.5,9.2,1.8,18.2,5.9,26.6c1.4,2.8,3.2,5.3,5.6,7.4
			c3.6,3.3,5.2,7.5,5,12.4C99.7,93,95.3,97,89.9,97c-8.2,0-16.5,0-24.7,0c-1.1,0-1.6,0.1-1.7,1.4c-0.5,4.6-4.7,8.3-9.1,8.5
			c-5.3,0.1-9.6-3-10.4-7.8c-0.3-1.8-1-2.1-2.6-2.1C37.5,97.1,33.7,97,29.8,97z M53.6,87c11.3,0,22.5,0,33.8,0
			c0.9,0,2.2,0.4,2.5-0.2c0.4-0.9-0.3-2.1-0.8-3c-0.3-0.5-0.6-0.9-1-1.3c-4-3.5-6.7-7.9-8.7-12.7c-4.4-10.4-5.7-21.3-5.9-32.5
			c-0.1-7.5-3.5-13.2-10-17c-6.7-3.8-13.6-3.7-20.1,0.3c-6.6,4.1-9.6,10.3-9.5,18c0,8.2-1,16.3-3.3,24.2
			c-2.2,7.5-5.4,14.6-11.4,19.9c-0.8,0.7-1.3,1.7-1.6,2.8c-0.3,1.1-0.1,1.5,1.2,1.5C30.3,87,42,87,53.6,87z"/>
	</g>
</g>
<g id="edit" class="sprite">
	<g>
		<path d="M88.4,40.2c-0.1,0.1-0.2,0.2-0.2,0.3c-0.1,0.1-0.3,0.3-0.4,0.4C70,58.6,52.2,76.4,34.4,94.2c-0.5,0.5-0.7,0.5-1.2,0
			c-6.8-6.9-13.6-13.7-20.5-20.5c-0.4-0.4-0.4-0.6,0-1c17.9-17.9,35.8-35.7,53.6-53.6c0.4-0.4,0.6-0.4,1,0
			C74.2,26,81,32.8,87.9,39.7C88.1,39.8,88.2,40,88.4,40.2z"/>
		<path class="st1" d="M88.5,1c2.6,0,4.9,1,6.8,2.9c3.1,3.1,6.2,6.2,9.3,9.3c3.1,3.1,3.1,7.5,0.1,10.7c-3.4,3.5-6.9,6.9-10.3,10.3
			c-0.3,0.3-0.5,0.3-0.8,0c-6.9-7-13.9-13.9-20.9-20.9c-0.3-0.3-0.4-0.4,0-0.7c3.1-3.1,6.1-6.2,9.3-9.2C83.8,1.8,86,1,88.5,1z"/>
		<path class="st1" d="M6.4,79.2c7.2,7.2,14.3,14.3,21.5,21.5c-1.7,0.4-3.5,0.9-5.3,1.3c-6.1,1.5-12.2,2.9-18.3,4.4
			c-1,0.2-1.9,0.2-2.7-0.6c-0.7-0.7-0.8-1.6-0.6-2.5c1.8-7.9,3.5-15.9,5.3-23.8C6.3,79.4,6.3,79.3,6.4,79.2z"/>
	</g>
</g>
<g id="phone" class="sprite">
	<g  class="st1">
		<path fill="white" class="st4" d="M4.8,33.4c0-4.8,0.8-9.5,2.7-13.9c1.8-4.3,4.4-8.1,8-11.2c2.1-1.9,4.3-3.7,6.4-5.5c1.1-0.9,2.3-1.5,3.7-1.7
			c1.6-0.3,3,0.1,4.4,0.8c1.9,1,3.3,2.6,4.6,4.2c1.8,2.2,3.2,4.7,4.8,7.1c1.1,1.7,2.2,3.5,3.1,5.4c0.9,1.9,1.6,3.9,1.8,6
			c0.3,2.9-0.5,5.5-2.5,7.8c-1.1,1.3-2.5,2.3-3.7,3.4c-1.3,1.2-2.8,2.1-4.2,3.2c-1.5,1.1-2.6,2.5-3.1,4.3c-0.4,1.4-0.3,2.8-0.1,4.3
			c0.5,2.4,1.5,4.7,2.7,6.8c2,3.5,4.4,6.7,6.9,9.7c2.4,2.9,4.9,5.7,7.7,8.3c2.3,2.2,4.7,4.2,7.5,5.8c1.6,0.9,3.4,1.7,5.3,1.9
			c2.2,0.3,4.2-0.3,6-1.7c0.7-0.5,1.3-1.2,1.9-1.8c1.1-1.3,2.5-2.4,3.7-3.5c0.9-0.8,1.8-1.6,2.8-2.3c2.9-1.9,6-2.1,9.2-1
			c2.2,0.8,4.1,2,6,3.3c2.4,1.8,4.5,3.8,6.8,5.7c1.6,1.4,3.1,2.8,4.4,4.4c1,1.3,1.9,2.6,2.4,4.2c0.7,2.3,0.1,4.3-1.3,6.1
			c-0.7,0.9-1.6,1.7-2.6,2.5c-1.4,1.2-2.8,2.5-4.2,3.7c-2.6,2.3-5.5,4-8.7,5.4c-2.6,1.1-5.2,1.8-8,2.2c-2.5,0.3-5,0.4-7.5,0.2
			c-6.1-0.4-11.8-2.3-17.2-5.1c-4.4-2.2-8.4-5-12.3-8c-4.8-3.8-9.2-8.1-13.3-12.7c-3.8-4.2-7.4-8.5-10.6-13.1
			c-3.7-5.2-7-10.7-9.4-16.6c-1.6-3.8-2.8-7.7-3.5-11.8C5,38,4.8,35.7,4.8,33.4z"/>
	</g>
</g>
<g id="camera" class="sprite">
	<g>
		<path fill="white" d="M54.3,104c-13.3,0-26.6,0-39.9,0C6.9,104,1.1,98.2,1,90.7C1,82.8,1,75,1,67.1c0-11.9,0-23.8,0-35.7
			c0-8.2,5.7-13.8,13.8-13.8c3.9,0,7.7,0,11.6,0c0.9,0,1.2-0.2,1.2-1.1c-0.1-1.9,0-3.7,0-5.6c0-4.5,2.1-6.8,6.5-7.5
			C35.4,3.1,36.6,3,37.9,3C48.9,3,60,3,71,3c1.6,0,3.2,0.3,4.7,0.7c3.3,1,5,3.1,5.1,6.6c0.1,2,0.1,4,0,6c0,1,0.3,1.2,1.2,1.2
			c4,0,7.9,0,11.9,0c7.7,0,13.5,5.8,13.5,13.5c0,19.8,0,39.7,0,59.5c0,7.6-5.8,13.5-13.4,13.5C80.8,104,67.5,104,54.3,104z
			 M24.4,56.6C24.5,73.6,38.1,86.3,54,86.5c16.5,0.2,30-13.2,30.1-29.7c0.1-16.4-13.2-29.9-29.8-29.9C37.8,26.8,24.6,40,24.4,56.6z
			 M100.8,30.7c0-3.6-3.1-6.6-6.7-6.6c-3.6,0.1-6.6,3.1-6.5,6.7c0.1,3.6,3,6.6,6.7,6.5C97.9,37.4,100.8,34.4,100.8,30.7z"/>
		<path fill="white" d="M17.5,15.6c-1.9,0-3.7,0-5.6,0c-0.7,0-0.9-0.1-0.9-0.9c-0.1-3.2,1.6-5,4.9-5c1.3,0,2.5,0,3.8,0c2.9,0,4.9,2.5,4.4,5.4
			c-0.1,0.6-0.5,0.5-0.8,0.5C21.3,15.6,19.4,15.6,17.5,15.6z"/>
		<path fill="white" d="M74.4,56.7c0,11.1-9,20.1-20.1,20.1c-11.2,0-20.2-9-20.2-20.2c0-11.2,9.1-20.2,20.2-20.2C65.4,36.5,74.4,45.5,74.4,56.7z"
			/>
	</g>
</g>
<g id="check" class="sprite">
	<g>
		<path d="M1.7,54.3C1.8,51,4,47.5,8.4,45.6c4.4-1.9,8.6-1.1,12,2.2c6,5.7,11.9,11.5,17.8,17.4c0.9,0.9,1.3,0.7,2.1-0.1
			c15.2-14.9,30.4-29.8,45.6-44.8c3.6-3.6,7.6-5.3,12.6-3.7c8,2.6,10.3,12.9,4.2,18.8C91.1,46.7,79.6,58,68.1,69.3
			c-7,6.8-13.9,13.6-20.9,20.4c-4.5,4.4-11.2,4.4-15.7,0c-8.8-8.5-17.6-17.1-26.3-25.6C2.8,61.8,1.6,59.1,1.7,54.3z"/>
	</g>
</g>
<g id="marker" class="sprite">
	<g>
		<path class="st1" d="M53.6,107c0.2-0.4-0.2-0.7-0.3-1c-9.6-19-19.5-37.8-28.9-56.9c-6.3-12.7-4.9-25,3.9-36.1
			C33.5,6.4,40.6,2.5,49,1.4C61.2-0.3,71.4,3.7,79.3,13c5.9,6.9,8.3,15.1,7.5,24.1c-0.4,4.5-1.7,8.6-3.7,12.6
			C73.5,68.4,63.9,87.2,54.3,106c-0.1,0.3-0.5,0.5-0.3,1C53.9,107,53.7,107,53.6,107z M53.8,54c10.9,0,19.9-8.9,19.9-19.9
			c0-10.9-8.9-19.9-19.9-19.9c-11,0-20,9-19.9,19.9C34,45.1,42.9,54,53.8,54z"/>
	</g>
</g>
<g id="marker-white" class="sprite">
	<g>
		<path fill="white" d="M53.6,107c0.2-0.4-0.2-0.7-0.3-1c-9.6-19-19.5-37.8-28.9-56.9c-6.3-12.7-4.9-25,3.9-36.1
			C33.5,6.4,40.6,2.5,49,1.4C61.2-0.3,71.4,3.7,79.3,13c5.9,6.9,8.3,15.1,7.5,24.1c-0.4,4.5-1.7,8.6-3.7,12.6
			C73.5,68.4,63.9,87.2,54.3,106c-0.1,0.3-0.5,0.5-0.3,1C53.9,107,53.7,107,53.6,107z M53.8,54c10.9,0,19.9-8.9,19.9-19.9
			c0-10.9-8.9-19.9-19.9-19.9c-11,0-20,9-19.9,19.9C34,45.1,42.9,54,53.8,54z"/>
	</g>
</g>
<g id="settings" class="sprite">
	<g>
		<path class="st1" d="M84,96.3c-1.9,0-3.5-0.6-4.8-1.9c-1-0.9-1.8-1.9-2.8-2.8c-2-1.9-4.4-2.4-6.9-1.3c-2.5,1.1-3.8,3.1-3.9,5.9
			c0,1.5,0,2.9,0,4.4c-0.2,3.7-3,6.4-6.7,6.4c-2.7,0-5.5,0-8.2,0c-3.7,0-6.6-2.9-6.8-6.7c0-1.5,0-2.9,0-4.4c-0.1-2.7-1.5-4.6-4-5.7
			c-2.5-1-4.7-0.6-6.7,1.2c-1,0.9-1.9,1.9-2.8,2.8c-2.9,2.7-7,2.7-9.8,0c-1.9-1.9-3.8-3.8-5.7-5.7c-3-3-3-7,0.1-10.1
			c0.8-0.8,1.7-1.6,2.5-2.5c1.9-2,2.4-4.3,1.4-6.8c-1-2.5-3-3.9-5.7-4c-1.3-0.1-2.6,0-4,0C4.7,65.1,2,62.3,2,58c0-2.5,0-5,0-7.5
			c0-3.6,2.6-6.4,6.2-6.7c1.5-0.1,3-0.1,4.5-0.1c2.9-0.1,5.1-1.5,6.1-4c1-2.7,0.4-5-1.6-7c-0.9-0.9-1.8-1.7-2.6-2.6
			c-2.6-2.8-2.7-6.7,0-9.5c2-2.1,4.1-4.1,6.3-6.1c2.7-2.5,6.8-2.5,9.5,0.1c0.9,0.9,1.8,1.8,2.7,2.7c2,1.9,4.3,2.5,6.9,1.4
			c2.5-1.1,3.9-3,4-5.8c0-1.8-0.2-3.6,0.2-5.3c0.6-3.2,3.3-5.5,6.5-5.5c2.6,0,5.3,0,7.9,0c4.1,0,7,2.8,7.1,6.9c0.1,1.4,0,2.7,0,4.1
			c0.1,2.8,1.5,4.7,4,5.8c2.5,1,4.8,0.5,6.8-1.4c0.9-0.9,1.8-1.8,2.7-2.7c2.8-2.7,7-2.7,9.7,0c2,2,4,4,6,6c2.7,2.8,2.7,6.8,0,9.6
			c-1,1-2,1.9-2.9,2.9c-1.8,1.8-2.3,4-1.4,6.4c0.9,2.4,2.6,3.9,5.2,4.2c1.4,0.1,2.9,0.1,4.4,0.1c4,0.1,6.5,2.4,6.7,6.4
			c0.1,2.9,0.1,5.8,0,8.8c-0.2,4-2.7,6.5-6.8,6.5c-1.3,0-2.6,0-4,0c-2.7,0.1-4.5,1.5-5.5,4c-1,2.5-0.5,4.7,1.3,6.7
			c1,1,2,1.9,2.9,2.9c2.6,2.7,2.7,6.7,0,9.5c-2,2.1-4,4.1-6.1,6.1C87.5,95.7,85.9,96.3,84,96.3z M54.7,32.6
			c-12.1,0-21.8,9.8-21.8,21.9c0,12.1,9.8,21.9,21.9,21.9c12.1,0,21.9-9.8,21.9-21.9C76.6,42.4,66.8,32.5,54.7,32.6z"/>
	</g>
</g>
<g id="next" class="sprite">
	<g>
		<path fill="#959595" class="st3" d="M62,54c-1-1-26.4-26.7-39.1-39.3c-1.3-1.3-1.5-2,0-3.3c3.4-3.1,6.6-6.4,9.7-9.7c0.9-0.9,1.4-0.9,2.3,0
			c17,17.1,34.1,34.1,51.2,51.2c0.9,0.9,0.9,1.4,0,2.3c-17.1,17-34.1,34.1-51.2,51.2c-0.9,0.9-1.4,0.9-2.3,0c-3.3-3.4-6.6-6.8-10-10
			c-1.2-1.1-1-1.7,0-2.7C35.4,80.9,61,55,62,54z"/>
	</g>
</g>
<g id="next-white" class="sprite">
	<g>
		<path fill="#ffffff" class="st3" d="M62,54c-1-1-26.4-26.7-39.1-39.3c-1.3-1.3-1.5-2,0-3.3c3.4-3.1,6.6-6.4,9.7-9.7c0.9-0.9,1.4-0.9,2.3,0
			c17,17.1,34.1,34.1,51.2,51.2c0.9,0.9,0.9,1.4,0,2.3c-17.1,17-34.1,34.1-51.2,51.2c-0.9,0.9-1.4,0.9-2.3,0c-3.3-3.4-6.6-6.8-10-10
			c-1.2-1.1-1-1.7,0-2.7C35.4,80.9,61,55,62,54z"/>
	</g>
</g>
<g id="menu" class="sprite">
	<path id="menu_1_" d="M8.6,80.1h90.9c4.2,0,7.6,3.4,7.6,7.6v7.6c0,4.2-3.4,7.6-7.6,7.6H8.6c-4.2,0-7.6-3.4-7.6-7.6v-7.6
		C1,83.5,4.4,80.1,8.6,80.1z M1,49.8v7.6c0,4.2,3.4,7.6,7.6,7.6h90.9c4.2,0,7.6-3.4,7.6-7.6v-7.6c0-4.2-3.4-7.6-7.6-7.6H8.6
		C4.4,42.2,1,45.6,1,49.8z M1,11.9v7.6c0,4.2,3.4,7.6,7.6,7.6h90.9c4.2,0,7.6-3.4,7.6-7.6v-7.6c0-4.2-3.4-7.6-7.6-7.6H8.6
		C4.4,4.4,1,7.7,1,11.9z"/>
</g>
<g id="user" class="sprite">
	<g>
		<path fill="#ffffff" d="M-3,109c0.6-5.6,1.4-11.1,3.3-16.5c0.7-1.9,1.4-3.7,2.4-5.4c1-1.8,2.3-3.5,3.9-5C9,80,12,79.5,15,78.9
			c6.3-1.4,12.6-3,18.5-5.6c3.9-1.7,6.8-4.1,7.6-8.6C42,59.8,42,55.1,38.8,51c-1.7-2.2-2.7-4.6-2.3-7.4c0.1-1,0.2-2.1,1.5-2.5
			c0.7-0.2,0.3-1.1,0.2-1.6c-0.4-3.6-0.7-7.1,0.1-10.6c0.8-3.5,2.5-6.3,5.8-8c0.4-0.2,0.7-0.5,1-0.9c4.5-5.2,12.1-5.2,16.7,0
			c0.3,0.3,0.5,0.6,0.9,0.8c4,2,5.6,5.5,6.3,9.7c0.4,3.1,0.2,6.1-0.2,9.1c-0.1,0.7-0.4,1.3,0.7,1.7c0.8,0.3,0.9,1.4,1,2.2
			c0.3,2.6-0.3,5.1-2.1,7c-4.2,4.7-3.6,13.6-1,18.1c0.9,1.5,2.2,2.5,3.7,3.3c4.9,2.8,10.4,4.3,15.8,5.7c2.7,0.7,5.5,1.3,8.2,1.9
			c3.4,0.7,5.9,2.8,7.8,5.5c3.3,4.7,4.8,10,5.9,15.5c0.5,2.8,0.8,5.7,1.2,8.5C72.3,109,34.7,109-3,109z"/>
	</g>
</g>
<g id="email" class="sprite">
	<g class="st1">
		<path fill="white" class="st4" d="M7,22c31.5,0,62.8,0,94.2,0c0,0.4-0.2,0.5-0.4,0.6c-10.3,9.1-20.6,18.2-30.9,27.3
			c-5.2,4.6-10.3,9.1-15.5,13.7c-0.4,0.3-0.6,0.3-0.9,0C38.3,49.8,23,36.2,7.7,22.6C7.5,22.5,7.3,22.3,7,22z"/>
		<path fill="white" class="st4" d="M7.2,88.1c1.6-1.4,3.1-2.7,4.6-3.9c9.1-7.8,18.2-15.6,27.3-23.4c0.9-0.7,0.9-0.7,1.7,0
			c4.3,3.8,8.6,7.6,12.9,11.5c0.4,0.4,0.6,0.2,0.9-0.1c4.4-3.9,8.8-7.8,13.2-11.7c0.4-0.3,0.5-0.3,0.9,0c10.3,9.1,20.7,18.1,31,27.1
			c0.1,0.1,0.3,0.2,0.5,0.4C69.1,88.1,38.3,88.1,7.2,88.1z"/>
		<path fill="white" class="st4" d="M106.1,84.6c-11-9.6-22-19.2-33-28.9c11.1-9.8,22.2-19.6,33.4-29.5c0.4,0.7,0.5,1.5,0.5,2.2
			c0,12.3,0,24.5,0,36.8c0,5.4,0,10.8,0,16.2C107,82.6,106.7,83.6,106.1,84.6z"/>
		<path fill="white" class="st4" d="M1.6,84.2C1.2,83.4,1,82.6,1,81.7c0-17.8,0-35.6,0-53.5c0-0.6,0.2-1.3,0.3-1.9c0.1-0.4,0.2-0.5,0.6-0.2
			c1.3,1.2,2.6,2.3,3.9,3.5c9.5,8.5,19,16.9,28.5,25.4c0.7,0.6,0.7,0.6,0,1.2C23.6,65.4,12.9,74.5,2.3,83.6
			C2.1,83.8,1.9,84,1.6,84.2z"/>
	</g>
</g>
<g id="sostenedor" class="sprite">
	<g>
		<path fill="white" d="M73.3,32.2c-12.8,0-25.6,0-38.3,0c0.1-0.4,1.6-4.2,1.5-4.6c1.3-5.6,0.4-10.7-4-14.7c-7.1-6.4-18.3-3-21,6.3
			c-0.2,0.5-0.2,1.1-0.4,1.6c-0.4,1-0.5,2.1,0.7,2.2c1.1,0.1,2.7,1.1,3.2-1.3c1.3-6.1,5.9-9.3,11.2-7.9c5,1.3,8,6.8,6.5,12.4
			c-1.5,5.8-5.3,9.5-11,10.7c-6.4,1.3-11.9-0.8-16.2-5.8c-5.1-5.7-3.1-15.9-2.8-16.5C5.3,6.7,12,1.3,20.6,1.2
			c22.3-0.2,44.7-0.1,67,0c7.9,0,14.7,5.1,17.6,12.5c1.3,3.4,1.8,8.9,0.4,12.4c-4,11.5-18.8,15.1-26.7,6.4
			c-2.6-2.9-3.9-6.3-3.6-10.2c0.2-4.6,3.8-8.4,8.4-8.8c4.3-0.4,8.4,2.8,9.5,7.3c0.2,1-0.2,2.4,1.7,2.4c2.5,0,2.7-0.2,2.2-2.8
			C95.5,13.2,88.4,8.1,81.3,10c-7.6,2-11.8,9.7-9.4,17.7c0.3,1.1,0.8,2.2,1.2,3.3C73.1,31.4,73.2,31.8,73.3,32.2z"/>
		<path fill="#e6e6e6" class="st4" d="M35.7,63.5c0,8.2-0.1,16.4,0,24.7c0,1.8-0.5,2.2-2.2,2.1c-3.1-0.1-6.2-0.1-9.3,0c-1.3,0-1.9-0.2-1.9-1.7
			c0.1-15.4,0.1-30.7,0-46.1c0-1.3,0.5-1.8,1.6-2.1c2.1-0.6,4-1.6,5.8-2.9c0.4-0.3,0.9-0.7,1.4-0.8c3.5-0.9,4.6-0.1,4.6,3.5
			C35.7,48,35.7,55.7,35.7,63.5z"/>
		<path fill="#e6e6e6" class="st4" d="M72.5,63.5c0-8.3,0-16.6,0-24.9c0-1.5,0.3-2,1.9-2c1.8,0,3.5,0.1,4.9,1.4c1.3,1.2,3,1.9,4.8,2.3
			c1.5,0.4,1.8,1.2,1.8,2.6c-0.1,15-0.1,30.1,0,45.1c0,1.7-0.5,2.3-2.2,2.2c-3.1-0.1-6.2-0.1-9.3,0c-1.5,0.1-1.9-0.4-1.9-1.9
			C72.6,80.1,72.5,71.8,72.5,63.5z"/>
		<path fill="#e6e6e6" class="st4" d="M52.1,63.4c0,8.3,0,16.6,0,24.9c0,1.4-0.3,2.1-1.9,2c-2.9-0.1-5.9-0.1-8.8,0c-1.3,0-1.9-0.3-1.9-1.8
			c0-16.7,0-33.5,0-50.2c0-1.5,0.6-1.8,1.9-1.8c2.8,0.1,5.6,0.1,8.4,0c1.8-0.1,2.4,0.4,2.4,2.3C52.1,47,52.1,55.2,52.1,63.4z"/>
		<path fill="#e6e6e6" class="st4" d="M56.1,63.2c0-8.1,0.1-16.1-0.1-24.2c0-2.1,0.6-2.6,2.6-2.5c2.7,0.2,5.4,0.1,8.1,0c1.4,0,1.9,0.3,1.9,1.8
			c0,16.7,0,33.5,0,50.2c0,1.5-0.6,1.8-1.9,1.8c-2.9-0.1-5.9-0.1-8.8,0c-1.6,0.1-1.9-0.6-1.9-2C56.2,79.9,56.1,71.6,56.1,63.2z"/>
	</g>
	<path fill="white" d="M11,107l1.9-7c0,0,3.7,0.5,6.5-1.9s2.8-4.7,2.8-4.7H86c0,0,0,2.3,2.8,4.7s6.5,1.9,6.5,1.9l1.9,7H11z"/>
</g>
</svg>
