<?xml version="1.0" encoding="utf-8"?>
<!-- Generator: Adobe Illustrator 21.1.0, SVG Export Plug-In . SVG Version: 6.00 Build 0)  -->
<svg version="1.1" id="Layer_1" xmlns="http://www.w3.org/2000/svg" xmlns:xlink="http://www.w3.org/1999/xlink" x="0px" y="0px"
	 viewBox="0 0 108 108" style="enable-background:new 0 0 108 108;" xml:space="preserve">
<style type="text/css">
	.st0{fill:#00829F;}
</style>
<g id="surface1">
	<path class="st0" d="M54.4,0.4c-9.1,0-16.9,3.8-21.8,9.9s-6.9,14.1-6.9,22.6v4.5h12.3v-4.5c0-6.5,1.6-11.6,4.2-14.9
		s6.2-5.3,12.2-5.3c6,0,9.6,1.8,12.2,5.1c2.6,3.3,4.2,8.5,4.2,15v4.5h12.3v-4.5c0-8.6-2.2-16.6-7.1-22.7S63.5,0.4,54.4,0.4z
		 M25.6,41.5c-6.8,0-12.3,5.5-12.3,12.3V95c0,6.8,5.5,12.3,12.3,12.3h57.6c6.8,0,12.3-5.5,12.3-12.3V53.9c0-6.8-5.5-12.3-12.3-12.3
		H25.6z M54.4,62.1c4.5,0,8.2,3.7,8.2,8.2c0,3-1.7,5.6-4.1,7.1v9.4c0,2.3-1.8,4.1-4.1,4.1s-4.1-1.8-4.1-4.1v-9.4
		c-2.5-1.4-4.1-4-4.1-7.1C46.2,65.8,49.8,62.1,54.4,62.1z"/>
</g>
</svg>
