<?xml version="1.0" encoding="utf-8"?>
<!-- Generator: Adobe Illustrator 21.1.0, SVG Export Plug-In . SVG Version: 6.00 Build 0)  -->
<svg version="1.1" xmlns="http://www.w3.org/2000/svg" xmlns:xlink="http://www.w3.org/1999/xlink" x="0px" y="0px"
	 viewBox="0 0 108 108" style="enable-background:new 0 0 108 108;" xml:space="preserve">
<style type="text/css">
	.st0{fill:#020202;}
	.st1{fill:#010101;}
</style>
<g id="next" >
	<g>
		<path fill="#959595" class="st3" d="M62,54c-1-1-26.4-26.7-39.1-39.3c-1.3-1.3-1.5-2,0-3.3c3.4-3.1,6.6-6.4,9.7-9.7c0.9-0.9,1.4-0.9,2.3,0
			c17,17.1,34.1,34.1,51.2,51.2c0.9,0.9,0.9,1.4,0,2.3c-17.1,17-34.1,34.1-51.2,51.2c-0.9,0.9-1.4,0.9-2.3,0c-3.3-3.4-6.6-6.8-10-10
			c-1.2-1.1-1-1.7,0-2.7C35.4,80.9,61,55,62,54z"/>
	</g>
</g>
</svg>
