<?xml version="1.0" encoding="utf-8"?>
<!-- Generator: Adobe Illustrator 21.1.0, SVG Export Plug-In . SVG Version: 6.00 Build 0)  -->
<svg version="1.1" xmlns="http://www.w3.org/2000/svg" xmlns:xlink="http://www.w3.org/1999/xlink" x="0px" y="0px"
	 viewBox="0 0 108 108" style="enable-background:new 0 0 108 108;" xml:space="preserve">
<style type="text/css">
	.st0{fill:#020202;}
	.st1{fill:#010101;}
</style>
<g id="search" >
	<g>
		<path fill="white" d="M0.8,46.5c0-0.6,0-1.3,0-1.9c0-0.4,0.1-0.7,0.1-1.1c0.1-1.4,0.2-2.8,0.4-4.3c0.5-3.4,1.4-6.7,2.6-9.8
			C10.1,14,24.9,2.9,42.3,2.1c0.1,0,0.3,0,0.4-0.1c1.1,0,2.2,0,3.4,0c0.1,0.1,0.3,0.1,0.4,0.1c1.3,0.1,2.6,0.2,3.8,0.4
			c3.3,0.4,6.5,1.3,9.6,2.5c15.4,5.9,26.9,20.4,27.9,38.2c0.2,3.4,0,6.8-0.6,10.1c-0.9,5.2-2.8,10.1-5.5,14.6
			c-0.3,0.5-0.3,0.5,0.1,0.8C89.9,76.8,98,84.9,106.1,93c0.4,0.4,0.7,0.7,0.9,1.2c0,0.5,0,0.9,0,1.4c-0.1,0.4-0.2,0.9-0.4,1.3
			c-0.6,1.4-1.5,2.5-2.5,3.6c-1.3,1.3-2.6,2.6-3.8,3.8c-0.6,0.6-1.3,1.1-2,1.6c-0.8,0.5-1.7,1-2.6,1.2c-0.1,0-0.3,0-0.4,0.1
			c-0.4,0-0.9,0-1.3,0c-0.6-0.2-1-0.6-1.4-1.1c-8-8-16-16-24-24c-0.1-0.1-0.1-0.1-0.2-0.2c-0.1-0.2-0.3-0.2-0.5,0
			c0,0-0.1,0.1-0.1,0.1c-6,3.8-12.6,6.1-19.7,6.7c-2.2,0.2-4.5,0.2-6.8,0c-2.3-0.2-4.6-0.5-6.9-1c-7.3-1.7-13.8-5.1-19.3-10.2
			c-6.6-6-11-13.4-13.1-22.1c-0.5-2.2-0.9-4.4-1-6.6C1,48.2,0.8,47.3,0.8,46.5z M15.3,45.5c0,16,13,29,29.1,29c16,0,29-13,29-29.1
			c0-16-13-29-29-29C28.3,16.5,15.3,29.5,15.3,45.5z"/>
	</g>
</g>
</svg>
