<?xml version="1.0" encoding="utf-8"?>
<!-- Generator: Adobe Illustrator 21.1.0, SVG Export Plug-In . SVG Version: 6.00 Build 0)  -->
<svg version="1.1" xmlns="http://www.w3.org/2000/svg" xmlns:xlink="http://www.w3.org/1999/xlink" x="0px" y="0px"
	 viewBox="0 0 108 108" style="enable-background:new 0 0 108 108;" xml:space="preserve">
<style type="text/css">
	.st0{fill:#020202;}
	.st1{fill:#010101;}
</style>
<g id="check" >
	<g>
		<path fill="white" d="M1.7,54.3C1.8,51,4,47.5,8.4,45.6c4.4-1.9,8.6-1.1,12,2.2c6,5.7,11.9,11.5,17.8,17.4c0.9,0.9,1.3,0.7,2.1-0.1
			c15.2-14.9,30.4-29.8,45.6-44.8c3.6-3.6,7.6-5.3,12.6-3.7c8,2.6,10.3,12.9,4.2,18.8C91.1,46.7,79.6,58,68.1,69.3
			c-7,6.8-13.9,13.6-20.9,20.4c-4.5,4.4-11.2,4.4-15.7,0c-8.8-8.5-17.6-17.1-26.3-25.6C2.8,61.8,1.6,59.1,1.7,54.3z"/>
	</g>
</g>
</svg>
