<?xml version="1.0" encoding="utf-8"?>
<!-- Generator: Adobe Illustrator 21.1.0, SVG Export Plug-In . SVG Version: 6.00 Build 0)  -->
<svg version="1.1" xmlns="http://www.w3.org/2000/svg" xmlns:xlink="http://www.w3.org/1999/xlink" x="0px" y="0px"
	 viewBox="0 0 108 108" style="enable-background:new 0 0 108 108;" xml:space="preserve">
<style type="text/css">
	.st0{fill:#020202;}
	.st1{fill:#010101;}
</style>
<g id="close">
	<g>
		<path d="M97.5,107c-0.8,0-1.7,0-2.5,0c0-0.1-0.2-0.1-0.3-0.1c-2.5-0.4-4.5-1.6-6.2-3.4C77.1,92.1,65.8,80.8,54.4,69.4
			c-0.3-0.3-0.5-0.4-0.9,0C44,79,34.4,88.6,24.7,98.3c-1.9,1.9-3.7,3.7-5.6,5.6c-1.3,1.3-2.8,2.2-4.5,2.7c-0.7,0.2-1.3,0.3-2,0.5
			c-0.8,0-1.7,0-2.5,0c-0.2-0.2-0.5-0.2-0.7-0.2c-4.7-0.9-8.4-5.2-8.5-10c-0.1-3.2,1.1-5.8,3.3-8.1c11.4-11.4,22.8-22.8,34.3-34.3
			c0.4-0.4,0.4-0.5,0-0.9c-10-10-20-20-30-29.9c-1.6-1.6-3.2-3.1-4.7-4.7C-1.3,13.5,0.7,4.5,7.7,1.7C8.6,1.4,9.4,1.3,10.3,1
			c0.8,0,1.7,0,2.5,0c0,0,0.1,0.1,0.1,0.1c2.6,0.3,4.7,1.5,6.5,3.3c11.4,11.4,22.8,22.8,34.2,34.2c0.3,0.3,0.5,0.3,0.9,0
			c8.3-8.3,16.7-16.7,25-25c3.1-3.1,6.3-6.2,9.4-9.4C90,3,91.3,2.1,92.9,1.6c0.7-0.2,1.5-0.4,2.2-0.6c0.8,0,1.7,0,2.5,0
			c0,0.1,0.1,0.1,0.2,0.1c5.2,0.6,9.2,5.1,9.2,10.3c0,3.1-1.1,5.7-3.3,7.9C92.3,30.7,80.9,42.1,69.4,53.6c-0.4,0.4-0.4,0.5,0,0.9
			C80.7,65.7,92,77,103.3,88.3c0.3,0.3,0.6,0.6,0.8,0.8c5.3,5.6,2.9,14.9-4.4,17.3C99,106.7,98.2,106.8,97.5,107z"/>
	</g>
</g>

</svg>
