<?xml version="1.0" encoding="utf-8"?>
<!-- Generator: Adobe Illustrator 21.1.0, SVG Export Plug-In . SVG Version: 6.00 Build 0)  -->
<svg version="1.1" xmlns="http://www.w3.org/2000/svg" xmlns:xlink="http://www.w3.org/1999/xlink" x="0px" y="0px"
	 viewBox="0 0 108 108" style="enable-background:new 0 0 108 108;" xml:space="preserve">
<style type="text/css">
	.st0{fill:#020202;}
	.st1{fill:#010101;}
</style>
<g id="edit" >
	<g>
		<path d="M88.4,40.2c-0.1,0.1-0.2,0.2-0.2,0.3c-0.1,0.1-0.3,0.3-0.4,0.4C70,58.6,52.2,76.4,34.4,94.2c-0.5,0.5-0.7,0.5-1.2,0
			c-6.8-6.9-13.6-13.7-20.5-20.5c-0.4-0.4-0.4-0.6,0-1c17.9-17.9,35.8-35.7,53.6-53.6c0.4-0.4,0.6-0.4,1,0
			C74.2,26,81,32.8,87.9,39.7C88.1,39.8,88.2,40,88.4,40.2z"/>
		<path class="st1" d="M88.5,1c2.6,0,4.9,1,6.8,2.9c3.1,3.1,6.2,6.2,9.3,9.3c3.1,3.1,3.1,7.5,0.1,10.7c-3.4,3.5-6.9,6.9-10.3,10.3
			c-0.3,0.3-0.5,0.3-0.8,0c-6.9-7-13.9-13.9-20.9-20.9c-0.3-0.3-0.4-0.4,0-0.7c3.1-3.1,6.1-6.2,9.3-9.2C83.8,1.8,86,1,88.5,1z"/>
		<path class="st1" d="M6.4,79.2c7.2,7.2,14.3,14.3,21.5,21.5c-1.7,0.4-3.5,0.9-5.3,1.3c-6.1,1.5-12.2,2.9-18.3,4.4
			c-1,0.2-1.9,0.2-2.7-0.6c-0.7-0.7-0.8-1.6-0.6-2.5c1.8-7.9,3.5-15.9,5.3-23.8C6.3,79.4,6.3,79.3,6.4,79.2z"/>
	</g>
</g>
</svg>
