<?xml version="1.0" encoding="utf-8"?>
<!-- Generator: Adobe Illustrator 21.1.0, SVG Export Plug-In . SVG Version: 6.00 Build 0)  -->
<svg version="1.1" xmlns="http://www.w3.org/2000/svg" xmlns:xlink="http://www.w3.org/1999/xlink" x="0px" y="0px"
	 viewBox="0 0 108 108" style="enable-background:new 0 0 108 108;" xml:space="preserve">
<style type="text/css">
	.st0{fill:#020202;}
	.st1{fill:#010101;}
</style>
<g id="email" >
	<g class="st1">
		<path fill="white" class="st4" d="M7,22c31.5,0,62.8,0,94.2,0c0,0.4-0.2,0.5-0.4,0.6c-10.3,9.1-20.6,18.2-30.9,27.3
			c-5.2,4.6-10.3,9.1-15.5,13.7c-0.4,0.3-0.6,0.3-0.9,0C38.3,49.8,23,36.2,7.7,22.6C7.5,22.5,7.3,22.3,7,22z"/>
		<path fill="white" class="st4" d="M7.2,88.1c1.6-1.4,3.1-2.7,4.6-3.9c9.1-7.8,18.2-15.6,27.3-23.4c0.9-0.7,0.9-0.7,1.7,0
			c4.3,3.8,8.6,7.6,12.9,11.5c0.4,0.4,0.6,0.2,0.9-0.1c4.4-3.9,8.8-7.8,13.2-11.7c0.4-0.3,0.5-0.3,0.9,0c10.3,9.1,20.7,18.1,31,27.1
			c0.1,0.1,0.3,0.2,0.5,0.4C69.1,88.1,38.3,88.1,7.2,88.1z"/>
		<path fill="white" class="st4" d="M106.1,84.6c-11-9.6-22-19.2-33-28.9c11.1-9.8,22.2-19.6,33.4-29.5c0.4,0.7,0.5,1.5,0.5,2.2
			c0,12.3,0,24.5,0,36.8c0,5.4,0,10.8,0,16.2C107,82.6,106.7,83.6,106.1,84.6z"/>
		<path fill="white" class="st4" d="M1.6,84.2C1.2,83.4,1,82.6,1,81.7c0-17.8,0-35.6,0-53.5c0-0.6,0.2-1.3,0.3-1.9c0.1-0.4,0.2-0.5,0.6-0.2
			c1.3,1.2,2.6,2.3,3.9,3.5c9.5,8.5,19,16.9,28.5,25.4c0.7,0.6,0.7,0.6,0,1.2C23.6,65.4,12.9,74.5,2.3,83.6
			C2.1,83.8,1.9,84,1.6,84.2z"/>
	</g>
</g>
</svg>
