<?xml version="1.0" encoding="utf-8"?>
<!-- Generator: Adobe Illustrator 21.1.0, SVG Export Plug-In . SVG Version: 6.00 Build 0)  -->
<svg version="1.1" xmlns="http://www.w3.org/2000/svg" xmlns:xlink="http://www.w3.org/1999/xlink" x="0px" y="0px"
	 viewBox="0 0 108 108" style="enable-background:new 0 0 108 108;" xml:space="preserve">
<style type="text/css">
	.st0{fill:#020202;}
	.st1{fill:#010101;}
</style>
<g id="marker" >
	<g>
		<path class="st1" d="M53.6,107c0.2-0.4-0.2-0.7-0.3-1c-9.6-19-19.5-37.8-28.9-56.9c-6.3-12.7-4.9-25,3.9-36.1
			C33.5,6.4,40.6,2.5,49,1.4C61.2-0.3,71.4,3.7,79.3,13c5.9,6.9,8.3,15.1,7.5,24.1c-0.4,4.5-1.7,8.6-3.7,12.6
			C73.5,68.4,63.9,87.2,54.3,106c-0.1,0.3-0.5,0.5-0.3,1C53.9,107,53.7,107,53.6,107z M53.8,54c10.9,0,19.9-8.9,19.9-19.9
			c0-10.9-8.9-19.9-19.9-19.9c-11,0-20,9-19.9,19.9C34,45.1,42.9,54,53.8,54z"/>
	</g>
</g>
</svg>
