<?xml version="1.0" encoding="utf-8"?>
<!-- Generator: Adobe Illustrator 21.1.0, SVG Export Plug-In . SVG Version: 6.00 Build 0)  -->
<svg version="1.1" xmlns="http://www.w3.org/2000/svg" xmlns:xlink="http://www.w3.org/1999/xlink" x="0px" y="0px"
	 viewBox="0 0 108 108" style="enable-background:new 0 0 108 108;" xml:space="preserve">
<style type="text/css">
	.st0{fill:#020202;}
	.st1{fill:#010101;}
</style>
<g id="menu" >
	<path id="menu_1_" d="M8.6,80.1h90.9c4.2,0,7.6,3.4,7.6,7.6v7.6c0,4.2-3.4,7.6-7.6,7.6H8.6c-4.2,0-7.6-3.4-7.6-7.6v-7.6
		C1,83.5,4.4,80.1,8.6,80.1z M1,49.8v7.6c0,4.2,3.4,7.6,7.6,7.6h90.9c4.2,0,7.6-3.4,7.6-7.6v-7.6c0-4.2-3.4-7.6-7.6-7.6H8.6
		C4.4,42.2,1,45.6,1,49.8z M1,11.9v7.6c0,4.2,3.4,7.6,7.6,7.6h90.9c4.2,0,7.6-3.4,7.6-7.6v-7.6c0-4.2-3.4-7.6-7.6-7.6H8.6
		C4.4,4.4,1,7.7,1,11.9z"/>
</g>
</svg>
