<?xml version="1.0" encoding="utf-8"?>
<!-- Generator: Adobe Illustrator 21.1.0, SVG Export Plug-In . SVG Version: 6.00 Build 0)  -->
<svg version="1.1" xmlns="http://www.w3.org/2000/svg" xmlns:xlink="http://www.w3.org/1999/xlink" x="0px" y="0px"
	 viewBox="0 0 108 108" style="enable-background:new 0 0 108 108;" xml:space="preserve">
<style type="text/css">
	.st0{fill:#020202;}
	.st1{fill:#010101;}
</style>
<g id="phone" >
	<g  class="st1">
		<path fill="white" class="st4" d="M4.8,33.4c0-4.8,0.8-9.5,2.7-13.9c1.8-4.3,4.4-8.1,8-11.2c2.1-1.9,4.3-3.7,6.4-5.5c1.1-0.9,2.3-1.5,3.7-1.7
			c1.6-0.3,3,0.1,4.4,0.8c1.9,1,3.3,2.6,4.6,4.2c1.8,2.2,3.2,4.7,4.8,7.1c1.1,1.7,2.2,3.5,3.1,5.4c0.9,1.9,1.6,3.9,1.8,6
			c0.3,2.9-0.5,5.5-2.5,7.8c-1.1,1.3-2.5,2.3-3.7,3.4c-1.3,1.2-2.8,2.1-4.2,3.2c-1.5,1.1-2.6,2.5-3.1,4.3c-0.4,1.4-0.3,2.8-0.1,4.3
			c0.5,2.4,1.5,4.7,2.7,6.8c2,3.5,4.4,6.7,6.9,9.7c2.4,2.9,4.9,5.7,7.7,8.3c2.3,2.2,4.7,4.2,7.5,5.8c1.6,0.9,3.4,1.7,5.3,1.9
			c2.2,0.3,4.2-0.3,6-1.7c0.7-0.5,1.3-1.2,1.9-1.8c1.1-1.3,2.5-2.4,3.7-3.5c0.9-0.8,1.8-1.6,2.8-2.3c2.9-1.9,6-2.1,9.2-1
			c2.2,0.8,4.1,2,6,3.3c2.4,1.8,4.5,3.8,6.8,5.7c1.6,1.4,3.1,2.8,4.4,4.4c1,1.3,1.9,2.6,2.4,4.2c0.7,2.3,0.1,4.3-1.3,6.1
			c-0.7,0.9-1.6,1.7-2.6,2.5c-1.4,1.2-2.8,2.5-4.2,3.7c-2.6,2.3-5.5,4-8.7,5.4c-2.6,1.1-5.2,1.8-8,2.2c-2.5,0.3-5,0.4-7.5,0.2
			c-6.1-0.4-11.8-2.3-17.2-5.1c-4.4-2.2-8.4-5-12.3-8c-4.8-3.8-9.2-8.1-13.3-12.7c-3.8-4.2-7.4-8.5-10.6-13.1
			c-3.7-5.2-7-10.7-9.4-16.6c-1.6-3.8-2.8-7.7-3.5-11.8C5,38,4.8,35.7,4.8,33.4z"/>
	</g>
</g>
</svg>
