<?xml version="1.0" encoding="utf-8"?>
<!-- Generator: Adobe Illustrator 21.1.0, SVG Export Plug-In . SVG Version: 6.00 Build 0)  -->
<svg version="1.1" xmlns="http://www.w3.org/2000/svg" xmlns:xlink="http://www.w3.org/1999/xlink" x="0px" y="0px"
	 viewBox="0 0 108 108" style="enable-background:new 0 0 108 108;" xml:space="preserve">
<style type="text/css">
	.st0{fill:#020202;}
	.st1{fill:#010101;}
</style>
<g id="sostenedor" >
	<g>
		<path fill="white" d="M73.3,32.2c-12.8,0-25.6,0-38.3,0c0.1-0.4,1.6-4.2,1.5-4.6c1.3-5.6,0.4-10.7-4-14.7c-7.1-6.4-18.3-3-21,6.3
			c-0.2,0.5-0.2,1.1-0.4,1.6c-0.4,1-0.5,2.1,0.7,2.2c1.1,0.1,2.7,1.1,3.2-1.3c1.3-6.1,5.9-9.3,11.2-7.9c5,1.3,8,6.8,6.5,12.4
			c-1.5,5.8-5.3,9.5-11,10.7c-6.4,1.3-11.9-0.8-16.2-5.8c-5.1-5.7-3.1-15.9-2.8-16.5C5.3,6.7,12,1.3,20.6,1.2
			c22.3-0.2,44.7-0.1,67,0c7.9,0,14.7,5.1,17.6,12.5c1.3,3.4,1.8,8.9,0.4,12.4c-4,11.5-18.8,15.1-26.7,6.4
			c-2.6-2.9-3.9-6.3-3.6-10.2c0.2-4.6,3.8-8.4,8.4-8.8c4.3-0.4,8.4,2.8,9.5,7.3c0.2,1-0.2,2.4,1.7,2.4c2.5,0,2.7-0.2,2.2-2.8
			C95.5,13.2,88.4,8.1,81.3,10c-7.6,2-11.8,9.7-9.4,17.7c0.3,1.1,0.8,2.2,1.2,3.3C73.1,31.4,73.2,31.8,73.3,32.2z"/>
		<path fill="#e6e6e6" class="st4" d="M35.7,63.5c0,8.2-0.1,16.4,0,24.7c0,1.8-0.5,2.2-2.2,2.1c-3.1-0.1-6.2-0.1-9.3,0c-1.3,0-1.9-0.2-1.9-1.7
			c0.1-15.4,0.1-30.7,0-46.1c0-1.3,0.5-1.8,1.6-2.1c2.1-0.6,4-1.6,5.8-2.9c0.4-0.3,0.9-0.7,1.4-0.8c3.5-0.9,4.6-0.1,4.6,3.5
			C35.7,48,35.7,55.7,35.7,63.5z"/>
		<path fill="#e6e6e6" class="st4" d="M72.5,63.5c0-8.3,0-16.6,0-24.9c0-1.5,0.3-2,1.9-2c1.8,0,3.5,0.1,4.9,1.4c1.3,1.2,3,1.9,4.8,2.3
			c1.5,0.4,1.8,1.2,1.8,2.6c-0.1,15-0.1,30.1,0,45.1c0,1.7-0.5,2.3-2.2,2.2c-3.1-0.1-6.2-0.1-9.3,0c-1.5,0.1-1.9-0.4-1.9-1.9
			C72.6,80.1,72.5,71.8,72.5,63.5z"/>
		<path fill="#e6e6e6" class="st4" d="M52.1,63.4c0,8.3,0,16.6,0,24.9c0,1.4-0.3,2.1-1.9,2c-2.9-0.1-5.9-0.1-8.8,0c-1.3,0-1.9-0.3-1.9-1.8
			c0-16.7,0-33.5,0-50.2c0-1.5,0.6-1.8,1.9-1.8c2.8,0.1,5.6,0.1,8.4,0c1.8-0.1,2.4,0.4,2.4,2.3C52.1,47,52.1,55.2,52.1,63.4z"/>
		<path fill="#e6e6e6" class="st4" d="M56.1,63.2c0-8.1,0.1-16.1-0.1-24.2c0-2.1,0.6-2.6,2.6-2.5c2.7,0.2,5.4,0.1,8.1,0c1.4,0,1.9,0.3,1.9,1.8
			c0,16.7,0,33.5,0,50.2c0,1.5-0.6,1.8-1.9,1.8c-2.9-0.1-5.9-0.1-8.8,0c-1.6,0.1-1.9-0.6-1.9-2C56.2,79.9,56.1,71.6,56.1,63.2z"/>
	</g>
	<path fill="white" d="M11,107l1.9-7c0,0,3.7,0.5,6.5-1.9s2.8-4.7,2.8-4.7H86c0,0,0,2.3,2.8,4.7s6.5,1.9,6.5,1.9l1.9,7H11z"/>
</g>
</svg>
