<?xml version="1.0" encoding="utf-8"?>
<!-- Generator: Adobe Illustrator 21.1.0, SVG Export Plug-In . SVG Version: 6.00 Build 0)  -->
<svg version="1.1" xmlns="http://www.w3.org/2000/svg" xmlns:xlink="http://www.w3.org/1999/xlink" x="0px" y="0px"
	 viewBox="0 0 108 108" style="enable-background:new 0 0 108 108;" xml:space="preserve">
<style type="text/css">
	.st0{fill:#020202;}
	.st1{fill:#010101;}
</style>
<g id="user" >
	<g>
		<path fill="#ffffff" d="M-3,109c0.6-5.6,1.4-11.1,3.3-16.5c0.7-1.9,1.4-3.7,2.4-5.4c1-1.8,2.3-3.5,3.9-5C9,80,12,79.5,15,78.9
			c6.3-1.4,12.6-3,18.5-5.6c3.9-1.7,6.8-4.1,7.6-8.6C42,59.8,42,55.1,38.8,51c-1.7-2.2-2.7-4.6-2.3-7.4c0.1-1,0.2-2.1,1.5-2.5
			c0.7-0.2,0.3-1.1,0.2-1.6c-0.4-3.6-0.7-7.1,0.1-10.6c0.8-3.5,2.5-6.3,5.8-8c0.4-0.2,0.7-0.5,1-0.9c4.5-5.2,12.1-5.2,16.7,0
			c0.3,0.3,0.5,0.6,0.9,0.8c4,2,5.6,5.5,6.3,9.7c0.4,3.1,0.2,6.1-0.2,9.1c-0.1,0.7-0.4,1.3,0.7,1.7c0.8,0.3,0.9,1.4,1,2.2
			c0.3,2.6-0.3,5.1-2.1,7c-4.2,4.7-3.6,13.6-1,18.1c0.9,1.5,2.2,2.5,3.7,3.3c4.9,2.8,10.4,4.3,15.8,5.7c2.7,0.7,5.5,1.3,8.2,1.9
			c3.4,0.7,5.9,2.8,7.8,5.5c3.3,4.7,4.8,10,5.9,15.5c0.5,2.8,0.8,5.7,1.2,8.5C72.3,109,34.7,109-3,109z"/>
	</g>
</g>
</svg>
